<?xml version="1.0" standalone="no"?>
<!DOCTYPE svg PUBLIC "-//W3C//DTD SVG 20010904//EN"
 "http://www.w3.org/TR/2001/REC-SVG-20010904/DTD/svg10.dtd">
<svg version="1.0" xmlns="http://www.w3.org/2000/svg"
 width="1000.000000pt" height="1000.000000pt" viewBox="0 0 1000.000000 1000.000000"
 preserveAspectRatio="xMidYMid meet">
<metadata>
Created by potrace 1.14, written by Peter Selinger 2001-2017
</metadata>
<g transform="translate(0.000000,1000.000000) scale(0.100000,-0.100000)"
fill="#000000" stroke="none">
<path d="M6964 9912 c-10 -15 -224 -286 -271 -342 -7 -8 -65 -80 -129 -160
-64 -80 -131 -163 -149 -185 -18 -22 -156 -193 -306 -380 -150 -187 -285 -356
-301 -375 -16 -19 -32 -39 -36 -45 -4 -5 -27 -35 -52 -65 -25 -30 -51 -62 -57
-70 -7 -8 -92 -114 -189 -235 -96 -121 -183 -229 -192 -240 -9 -11 -62 -77
-117 -145 -55 -69 -102 -127 -105 -130 -3 -3 -104 -129 -225 -280 -121 -151
-222 -277 -225 -280 -3 -3 -30 -36 -60 -75 -30 -38 -62 -79 -72 -90 -60 -73
-498 -618 -908 -1130 -124 -154 -227 -282 -230 -285 -3 -3 -116 -142 -250
-310 -135 -168 -250 -312 -257 -320 -6 -8 -51 -64 -100 -125 -48 -60 -92 -115
-98 -121 -5 -6 -19 -23 -30 -38 -11 -16 -37 -47 -57 -70 -21 -22 -38 -44 -38
-47 0 -3 -13 -21 -30 -39 -16 -18 -30 -36 -30 -40 0 -3 219 -5 488 -4 1486 7
1952 7 1956 3 2 -2 -32 -65 -75 -139 -43 -74 -82 -141 -85 -148 -4 -8 -45 -80
-92 -160 -47 -81 -98 -172 -115 -202 -17 -30 -48 -83 -69 -118 -21 -34 -38
-64 -38 -65 0 -2 -48 -86 -106 -188 -59 -101 -114 -197 -124 -214 -9 -16 -104
-181 -210 -365 -106 -184 -227 -395 -269 -468 -42 -73 -80 -140 -86 -150 -32
-55 -76 -132 -93 -162 -11 -19 -54 -96 -97 -170 -43 -74 -89 -155 -103 -180
-14 -25 -33 -56 -42 -70 -9 -14 -19 -29 -21 -35 -4 -9 -110 -196 -150 -263
-17 -29 -465 -808 -506 -880 -13 -23 -53 -92 -88 -152 -62 -108 -72 -132 -33
-87 55 64 126 144 153 173 17 17 39 43 51 56 25 29 196 221 204 228 3 3 39 43
80 90 41 47 77 87 80 90 3 3 62 68 130 145 69 77 129 145 135 151 9 10 36 40
250 278 50 56 104 116 120 135 17 19 37 42 45 51 8 9 49 54 90 100 41 47 95
107 120 134 25 27 50 54 55 60 55 62 171 192 175 196 3 3 39 43 80 90 41 47
80 90 85 96 6 6 40 44 76 85 37 41 78 86 90 100 13 14 53 59 89 99 36 40 70
78 75 84 6 6 48 54 95 106 47 52 87 97 90 100 3 3 39 43 80 90 41 47 77 87 80
90 3 3 43 48 90 100 47 52 90 100 95 106 6 6 39 44 75 84 36 40 70 78 76 84 5
6 48 54 95 106 113 127 140 158 164 184 11 12 54 60 95 106 41 46 84 93 95
106 11 12 45 50 75 84 30 34 64 72 75 84 11 12 54 60 95 106 41 46 84 93 95
106 11 12 34 37 50 55 133 150 183 205 200 224 20 21 32 35 165 185 41 46 80
90 85 96 6 6 46 51 90 99 93 104 153 171 249 278 38 43 78 88 90 100 12 13 53
59 91 102 39 43 77 86 85 95 8 9 46 52 85 96 38 43 72 81 75 84 21 20 150 168
150 172 0 4 -764 3 -2282 -5 -285 -1 -518 -1 -518 1 0 5 85 167 225 427 18 33
74 139 125 235 51 96 105 198 120 225 15 28 58 109 95 180 37 72 71 135 75
140 4 6 35 64 70 130 35 66 98 185 140 265 42 80 101 190 130 245 29 55 60
114 70 130 17 30 135 251 177 335 13 25 28 52 33 60 5 8 62 114 126 235 64
121 134 254 156 295 93 174 118 220 168 315 29 55 69 129 88 165 19 36 75 142
124 235 50 94 103 193 118 220 15 28 55 104 90 170 34 66 71 135 82 153 11 17
16 32 11 32 -4 0 -13 -8 -19 -18z"/>
</g>
</svg>
